<svg width="36" height="36" viewBox="0 0 36 36" fill="none" xmlns="http://www.w3.org/2000/svg">
<path d="M18 0C11.3145 0 0 1.2645 0 5.99997C0 6.95847 0.480023 7.76847 1.27497 8.46147L13.5 24.5084V34.4999C13.5 35.0684 13.821 35.5874 14.3295 35.8424C14.541 35.9474 14.7719 35.9999 15 35.9999C15.318 35.9999 15.6359 35.8994 15.9 35.6999L21.8999 31.1999C22.2779 30.9164 22.4999 30.4709 22.4999 29.9998V24.5084L34.7249 8.4614C35.5199 7.76847 36 6.95847 36 5.99997C36 1.2645 24.6855 0 18 0ZM20.2575 22.5H15.7425L6.87599 10.8615C7.63051 11.037 8.41049 11.1915 9.21149 11.322C9.26099 11.331 9.30746 11.34 9.35696 11.349C10.0559 11.46 10.764 11.55 11.472 11.6295C11.769 11.664 12.0615 11.6984 12.3644 11.7285C13.0544 11.7945 13.7339 11.8424 14.4029 11.8845C14.6715 11.8995 14.9354 11.9175 15.2084 11.931C16.1925 11.9774 17.1359 11.9999 17.9999 11.9999C18.8639 11.9999 19.8074 11.9774 20.7914 11.931C21.0644 11.9175 21.3284 11.8995 21.5969 11.8845C22.2659 11.8425 22.9454 11.7945 23.6354 11.7285C23.9384 11.6984 24.2309 11.664 24.5278 11.6295C25.2358 11.5499 25.9439 11.4599 26.6428 11.349C26.6923 11.34 26.7388 11.331 26.7883 11.322C27.5893 11.1915 28.3708 11.037 29.1238 10.8615L20.2575 22.5Z" fill="white"/>
</svg>
